<svg id="visual" viewBox="0 0 900 600" width="900" height="600" xmlns="http://www.w3.org/2000/svg" xmlns:xlink="http://www.w3.org/1999/xlink" version="1.1"><rect x="0" y="0" width="900" height="600" fill="#00334e"></rect><path d="M0 419L21.5 411C43 403 86 387 128.8 376.5C171.7 366 214.3 361 257.2 360.8C300 360.7 343 365.3 385.8 376.7C428.7 388 471.3 406 514.2 410.8C557 415.7 600 407.3 642.8 411C685.7 414.7 728.3 430.3 771.2 427.3C814 424.3 857 402.7 878.5 391.8L900 381L900 601L878.5 601C857 601 814 601 771.2 601C728.3 601 685.7 601 642.8 601C600 601 557 601 514.2 601C471.3 601 428.7 601 385.8 601C343 601 300 601 257.2 601C214.3 601 171.7 601 128.8 601C86 601 43 601 21.5 601L0 601Z" fill="#cfeb9f"></path><path d="M0 401L21.5 408.2C43 415.3 86 429.7 128.8 440.7C171.7 451.7 214.3 459.3 257.2 455.3C300 451.3 343 435.7 385.8 425.8C428.7 416 471.3 412 514.2 412.7C557 413.3 600 418.7 642.8 420.7C685.7 422.7 728.3 421.3 771.2 425.2C814 429 857 438 878.5 442.5L900 447L900 601L878.5 601C857 601 814 601 771.2 601C728.3 601 685.7 601 642.8 601C600 601 557 601 514.2 601C471.3 601 428.7 601 385.8 601C343 601 300 601 257.2 601C214.3 601 171.7 601 128.8 601C86 601 43 601 21.5 601L0 601Z" fill="#a0c981"></path><path d="M0 462L21.5 461.2C43 460.3 86 458.7 128.8 466.3C171.7 474 214.3 491 257.2 488.3C300 485.7 343 463.3 385.8 458.8C428.7 454.3 471.3 467.7 514.2 470.7C557 473.7 600 466.3 642.8 461.7C685.7 457 728.3 455 771.2 459.8C814 464.7 857 476.3 878.5 482.2L900 488L900 601L878.5 601C857 601 814 601 771.2 601C728.3 601 685.7 601 642.8 601C600 601 557 601 514.2 601C471.3 601 428.7 601 385.8 601C343 601 300 601 257.2 601C214.3 601 171.7 601 128.8 601C86 601 43 601 21.5 601L0 601Z" fill="#72a866"></path><path d="M0 490L21.5 495.8C43 501.7 86 513.3 128.8 515C171.7 516.7 214.3 508.3 257.2 508C300 507.7 343 515.3 385.8 513.7C428.7 512 471.3 501 514.2 497.5C557 494 600 498 642.8 504.5C685.7 511 728.3 520 771.2 524.5C814 529 857 529 878.5 529L900 529L900 601L878.5 601C857 601 814 601 771.2 601C728.3 601 685.7 601 642.8 601C600 601 557 601 514.2 601C471.3 601 428.7 601 385.8 601C343 601 300 601 257.2 601C214.3 601 171.7 601 128.8 601C86 601 43 601 21.5 601L0 601Z" fill="#43884d"></path><path d="M0 570L21.5 562.5C43 555 86 540 128.8 538.7C171.7 537.3 214.3 549.7 257.2 556C300 562.3 343 562.7 385.8 561.5C428.7 560.3 471.3 557.7 514.2 558.3C557 559 600 563 642.8 561.2C685.7 559.3 728.3 551.7 771.2 551.2C814 550.7 857 557.3 878.5 560.7L900 564L900 601L878.5 601C857 601 814 601 771.2 601C728.3 601 685.7 601 642.8 601C600 601 557 601 514.2 601C471.3 601 428.7 601 385.8 601C343 601 300 601 257.2 601C214.3 601 171.7 601 128.8 601C86 601 43 601 21.5 601L0 601Z" fill="#006837"></path></svg>